<?xml version="1.0" encoding="UTF-8"?> <svg xmlns="http://www.w3.org/2000/svg" xmlns:xlink="http://www.w3.org/1999/xlink" width="1500" zoomAndPan="magnify" viewBox="0 0 1125 374.999991" height="500" preserveAspectRatio="xMidYMid meet" version="1.0"><path fill="#e50046" d="M 265.527344 155.925781 C 278.054688 180.046875 282.695312 207.414062 278.054688 234.785156 C 277.589844 238.496094 274.34375 241.28125 270.632812 241.28125 C 270.320312 241.28125 270.011719 241.28125 269.703125 241.28125 C 265.527344 240.351562 262.742188 236.640625 263.671875 232.464844 C 267.382812 208.34375 263.671875 184.222656 252.074219 162.882812 C 238.617188 136.90625 216.347656 117.886719 188.511719 108.144531 C 184.335938 122.058594 182.945312 136.90625 184.335938 151.285156 C 184.800781 154.996094 182.015625 158.707031 177.839844 159.171875 C 174.128906 159.636719 170.417969 156.851562 169.953125 152.675781 C 168.097656 133.65625 170.417969 114.636719 176.449219 96.546875 L 178.769531 90.050781 L 185.261719 91.90625 C 220.523438 101.648438 248.824219 124.378906 265.527344 155.925781 Z M 257.640625 273.75 L 259.03125 280.710938 L 252.074219 282.101562 C 241.558594 284.886719 231.039062 286.277344 220.523438 286.277344 C 195.933594 286.277344 172.273438 279.316406 151.394531 265.402344 C 121.238281 245.917969 101.753906 215.300781 95.257812 179.582031 L 94.328125 173.085938 L 100.824219 171.230469 C 136.085938 162.882812 171.808594 168.449219 201.964844 188.394531 C 231.660156 207.878906 251.609375 238.03125 257.640625 273.75 Z M 241.867188 269.578125 C 234.90625 240.816406 218.203125 216.691406 193.613281 200.457031 C 169.488281 184.683594 140.261719 178.65625 111.496094 184.222656 C 117.992188 212.519531 135.15625 237.105469 159.28125 252.875 C 183.871094 269.113281 213.101562 274.679688 241.867188 269.578125 Z M 756.855469 150.820312 C 758.246094 150.820312 763.8125 150.820312 765.667969 151.285156 L 765.667969 187.003906 C 765.667969 188.859375 764.277344 189.789062 762.886719 189.789062 L 714.632812 189.789062 C 713.242188 189.789062 711.851562 191.179688 711.851562 192.570312 L 710.921875 278.390625 C 710.921875 279.78125 709.53125 280.710938 708.140625 280.710938 L 668.703125 280.710938 C 667.3125 280.710938 665.917969 279.78125 665.917969 277.925781 L 665.917969 156.386719 C 665.917969 154.996094 667.3125 153.605469 668.703125 153.605469 L 708.140625 153.605469 C 709.53125 153.605469 710.921875 154.996094 710.921875 156.386719 L 710.921875 174.480469 C 715.5625 166.746094 721.4375 160.871094 728.554688 156.851562 C 735.359375 152.832031 743.398438 150.820312 752.679688 150.820312 Z M 871.914062 150.820312 C 873.304688 150.820312 878.875 150.820312 880.730469 151.285156 L 880.730469 187.003906 C 880.730469 188.859375 879.339844 189.789062 877.945312 189.789062 L 830.160156 189.789062 C 828.765625 189.789062 827.375 191.179688 827.375 192.570312 L 825.984375 278.390625 C 825.984375 279.78125 825.054688 280.710938 823.199219 280.710938 L 783.761719 280.710938 C 782.371094 280.710938 780.980469 279.78125 780.980469 277.925781 L 780.980469 156.386719 C 780.980469 154.996094 782.371094 153.605469 783.761719 153.605469 L 823.199219 153.605469 C 825.054688 153.605469 825.984375 154.996094 825.984375 156.386719 L 825.984375 174.480469 C 830.933594 166.746094 836.808594 160.871094 843.613281 156.851562 C 850.726562 152.832031 858.925781 150.820312 868.203125 150.820312 Z M 1032.90625 155.925781 L 1032.90625 278.390625 C 1032.90625 279.78125 1031.515625 281.175781 1030.121094 281.175781 L 994.863281 281.175781 L 994.863281 269.113281 C 985.582031 279.78125 972.128906 285.347656 956.816406 285.347656 C 946.609375 285.347656 937.175781 283.648438 928.515625 280.246094 C 920.164062 276.84375 912.742188 272.050781 906.246094 265.867188 C 900.0625 259.679688 895.113281 252.414062 891.402344 244.0625 C 888 235.710938 886.296875 226.589844 886.296875 216.691406 C 886.296875 207.726562 888 199.066406 891.402344 190.714844 C 894.804688 182.675781 899.597656 175.5625 905.785156 169.375 C 911.96875 163.191406 919.390625 158.242188 928.054688 154.53125 C 936.402344 151.128906 945.839844 149.429688 956.355469 149.429688 C 971.199219 149.429688 986.046875 154.996094 994.863281 165.203125 L 994.863281 153.140625 L 1030.121094 153.140625 C 1031.515625 153.140625 1032.90625 154.53125 1032.90625 155.925781 Z M 983.261719 217.621094 C 983.261719 213.601562 982.335938 209.734375 980.480469 206.023438 C 978.933594 202.621094 976.921875 199.53125 974.449219 196.746094 C 971.972656 193.960938 968.882812 191.953125 965.167969 190.714844 C 961.765625 189.167969 958.054688 188.394531 954.035156 188.394531 C 949.703125 188.394531 945.839844 189.167969 942.4375 190.714844 C 938.722656 191.953125 935.632812 193.960938 933.15625 196.746094 C 930.683594 199.53125 928.671875 202.621094 927.125 206.023438 C 925.578125 209.425781 924.804688 212.980469 924.804688 216.691406 C 924.804688 221.023438 925.578125 224.890625 927.125 228.289062 C 928.671875 232 930.683594 235.25 933.15625 238.03125 C 935.632812 240.507812 938.722656 242.515625 942.4375 244.0625 C 945.839844 245.609375 949.703125 246.382812 954.035156 246.382812 C 958.054688 246.382812 961.765625 245.609375 965.167969 244.0625 C 968.882812 242.515625 971.972656 240.507812 974.449219 238.03125 C 976.921875 235.25 978.933594 232.15625 980.480469 228.753906 C 982.335938 225.042969 983.261719 221.332031 983.261719 217.621094 Z M 646.898438 190.25 C 649.992188 198.910156 651.535156 208.808594 651.535156 219.941406 L 651.535156 225.042969 L 559.210938 225.042969 C 557.816406 225.042969 556.425781 226.433594 556.425781 227.828125 C 557.355469 245.144531 566.480469 253.804688 583.800781 253.804688 C 593.078125 253.804688 600.191406 250.402344 605.140625 243.597656 C 605.605469 242.671875 606.535156 242.207031 607.925781 242.207031 L 643.1875 249.164062 C 645.042969 249.628906 645.96875 251.484375 645.503906 253.339844 C 634.679688 274.988281 614.109375 285.8125 583.800781 285.8125 C 572.972656 285.8125 563.078125 284.265625 554.105469 281.175781 C 545.136719 277.773438 537.402344 273.132812 530.910156 267.257812 C 524.414062 261.382812 519.464844 254.269531 516.0625 245.917969 C 512.660156 237.566406 510.957031 228.289062 510.957031 218.085938 C 510.957031 207.261719 512.660156 197.675781 516.0625 189.324219 C 519.15625 180.664062 523.796875 173.398438 529.980469 167.519531 C 536.167969 161.335938 543.589844 156.695312 552.25 153.605469 C 560.910156 150.203125 570.808594 148.5 581.945312 148.5 C 592.769531 148.5 602.511719 150.203125 611.171875 153.605469 C 619.832031 156.695312 627.101562 161.335938 632.980469 167.519531 C 638.855469 173.707031 643.496094 181.28125 646.898438 190.25 Z M 609.316406 198.601562 C 607.769531 192.417969 604.675781 187.3125 600.039062 183.292969 C 595.398438 179.582031 589.832031 177.726562 583.335938 177.726562 C 576.222656 177.726562 570.5 179.582031 566.167969 183.292969 C 561.839844 187.003906 559.054688 192.105469 557.816406 198.601562 Z M 528.125 136.441406 L 493.792969 136.441406 C 492.402344 136.441406 491.007812 137.832031 491.007812 139.222656 L 491.007812 278.390625 C 491.007812 279.78125 489.617188 281.175781 488.226562 281.175781 L 445.078125 281.175781 C 443.222656 281.175781 442.292969 279.78125 442.292969 278.390625 L 442.292969 139.222656 C 442.292969 137.832031 440.902344 136.441406 439.511719 136.441406 L 404.714844 136.441406 C 403.320312 136.441406 401.929688 135.511719 401.929688 134.121094 L 401.929688 97.9375 C 401.929688 96.546875 403.320312 95.15625 404.714844 95.15625 L 528.125 95.15625 C 529.980469 95.15625 530.910156 96.546875 530.910156 97.9375 L 530.910156 134.121094 C 530.910156 135.511719 529.980469 136.441406 528.125 136.441406 Z M 384.761719 97.9375 L 384.761719 133.65625 C 384.761719 135.511719 383.835938 136.441406 381.980469 136.441406 L 338.832031 136.441406 C 337.441406 136.441406 336.046875 135.511719 336.046875 133.65625 L 336.046875 97.9375 C 336.046875 96.546875 337.441406 95.15625 338.832031 95.15625 L 381.980469 95.15625 C 383.835938 95.15625 384.761719 96.546875 384.761719 97.9375 Z M 384.761719 156.386719 L 384.761719 278.390625 C 384.761719 279.78125 383.835938 281.175781 381.980469 281.175781 L 338.832031 281.175781 C 337.441406 281.175781 336.046875 279.78125 336.046875 278.390625 L 336.046875 156.386719 C 336.046875 154.996094 337.441406 153.605469 338.832031 153.605469 L 381.980469 153.605469 C 383.835938 153.605469 384.761719 154.996094 384.761719 156.386719 Z M 384.761719 156.386719 " fill-opacity="1" fill-rule="evenodd"></path></svg> 